<svg width="274" height="87" viewBox="0 0 274 87" fill="none" xmlns="http://www.w3.org/2000/svg">
<g filter="url(#filter0_i_0_1)">
<path d="M16.9695 80.3C12.9695 80.3 9.7362 79.0667 7.26953 76.6C4.86953 74.0667 3.66953 70.4667 3.66953 65.8C3.66953 62.4667 4.30286 59.1667 5.56953 55.9C6.90286 52.5667 8.80286 49.5667 11.2695 46.9C13.7362 44.2333 16.7029 42.1 20.1695 40.5C23.6362 38.9 27.5362 38.1 31.8695 38.1C35.8695 38.1 39.2695 38.8 42.0695 40.2C44.9362 41.5333 46.3695 43.3667 46.3695 45.7C46.3695 46.3 46.3029 47.1 46.1695 48.1C46.0362 49.0333 45.8695 49.8 45.6695 50.4C45.4695 50.9333 45.1695 51.4333 44.7695 51.9C44.4362 52.3 43.9695 52.5 43.3695 52.5C43.1029 52.5 42.6029 52.4 41.8695 52.2C41.6029 53.6 41.4029 54.9667 41.2695 56.3C41.1362 57.6333 41.0695 58.9667 41.0695 60.3C41.0695 62.8333 41.4362 65.1 42.1695 67.1C42.9695 69.0333 44.5029 70.2333 46.7695 70.7C47.3695 70.8333 47.8362 71.0333 48.1695 71.3C48.5695 71.5667 48.7695 72.1333 48.7695 73C48.7695 73.7333 48.5695 74.6667 48.1695 75.8C47.8362 76.9333 47.1362 77.9667 46.0695 78.9C45.0695 79.7667 43.6029 80.2 41.6695 80.2C39.0695 80.2 37.0695 79.2667 35.6695 77.4C34.2695 75.4667 33.5695 72.7333 33.5695 69.2C31.7695 72.4667 29.4695 75.1333 26.6695 77.2C23.9362 79.2667 20.7029 80.3 16.9695 80.3ZM20.1695 69.9C22.8362 69.9 25.1695 69.0667 27.1695 67.4C29.2362 65.7333 30.8362 63.6333 31.9695 61.1C32.7029 59.5 33.2695 57.7667 33.6695 55.9C34.0695 53.9667 34.3362 52.0667 34.4695 50.2C33.3362 49.6667 32.0362 49.2333 30.5695 48.9C29.1029 48.5667 27.5695 48.4 25.9695 48.4C21.9029 48.4 18.5362 49.6 15.8695 52C13.2695 54.4 11.9695 57.4 11.9695 61C11.9695 63.6667 12.7029 65.8333 14.1695 67.5C15.6362 69.1 17.6362 69.9 20.1695 69.9ZM60.5602 80.1C58.1602 80.1 57.0935 79.3 57.3602 77.7C58.0935 74.8333 58.6935 71.9333 59.1602 69C59.6935 66 59.9602 63.1333 59.9602 60.4C59.9602 56.8667 59.7268 54.3 59.2602 52.7C58.8602 51.0333 58.2935 49.9 57.5602 49.3C56.8268 48.6333 55.9268 48.1333 54.8602 47.8C54.3935 47.6 53.9602 47.3333 53.5602 47C53.2268 46.6667 53.0602 46.2 53.0602 45.6C53.0602 44.6667 53.4268 43.6333 54.1602 42.5C54.8935 41.3667 55.9268 40.4 57.2602 39.6C58.6602 38.7333 60.2268 38.3 61.9602 38.3C64.2268 38.3 65.7935 39.1 66.6602 40.7C67.5268 42.2333 67.9602 44.2667 67.9602 46.8C67.9602 48.4667 67.7935 50.3333 67.4602 52.4C67.1268 54.4667 66.7935 56.3333 66.4602 58L66.6602 58.1C67.7268 54.5667 69.0268 51.3 70.5602 48.3C72.1602 45.3 74.0602 42.8667 76.2602 41C78.5268 39.1333 81.1268 38.2 84.0602 38.2C87.0602 38.2 89.4268 39.2333 91.1602 41.3C92.8935 43.3 93.7602 46.2667 93.7602 50.2V52.4C95.6935 48.3333 98.0268 44.9333 100.76 42.2C103.56 39.4667 106.927 38.1 110.86 38.1C114.06 38.1 116.56 39.1667 118.36 41.3C120.16 43.4333 121.06 46.1 121.06 49.3C121.06 50.5667 120.927 51.8 120.66 53C120.393 54.1333 120.093 55.2667 119.76 56.4C119.493 57.4667 119.227 58.5667 118.96 59.7C118.693 60.8333 118.56 61.9667 118.56 63.1C118.56 67.1 120.26 69.7 123.66 70.9C124.127 71.1 124.493 71.3333 124.76 71.6C125.027 71.8 125.16 72.2 125.16 72.8C125.16 73.4 124.96 74.2667 124.56 75.4C124.227 76.5333 123.527 77.6 122.46 78.6C121.393 79.5333 119.86 80 117.86 80C115.26 80 113.26 79.0667 111.86 77.2C110.46 75.2667 109.76 72.8333 109.76 69.9C109.76 68.4333 109.893 66.9 110.16 65.3C110.427 63.7 110.76 62.1667 111.16 60.7C111.493 59.3667 111.76 58.1 111.96 56.9C112.227 55.7 112.36 54.6667 112.36 53.8C112.36 52.2 111.96 51.0333 111.16 50.3C110.427 49.5667 109.427 49.2 108.16 49.2C106.027 49.2 104.093 49.8667 102.36 51.2C100.693 52.5333 99.1935 54.2667 97.8602 56.4C96.5935 58.5333 95.4935 60.8667 94.5602 63.4C94.6268 64 94.6602 64.8 94.6602 65.8C94.7268 66.7333 94.7602 67.5667 94.7602 68.3C94.7602 69.5667 94.6602 70.9 94.4602 72.3C94.3268 73.7 94.0268 74.8667 93.5602 75.8C93.0268 77.0667 92.2268 78.1 91.1602 78.9C90.1602 79.7 88.7935 80.1 87.0602 80.1C86.3268 80.1 85.6268 79.9333 84.9602 79.6C84.2935 79.3333 83.9602 78.8667 83.9602 78.2C83.9602 77.9333 84.1602 76.7667 84.5602 74.7C84.9602 72.5667 85.3602 69.9667 85.7602 66.9C86.1602 63.8333 86.3602 60.8333 86.3602 57.9C86.3602 54.7 86.0268 52.5 85.3602 51.3C84.6935 50.0333 83.6935 49.4 82.3602 49.4C80.6935 49.4 79.0935 50.1 77.5602 51.5C76.0935 52.9 74.7268 54.7 73.4602 56.9C72.2602 59.1 71.1935 61.4 70.2602 63.8C69.3935 66.2 68.6935 68.4333 68.1602 70.5V71.6C68.1602 74.0667 67.4602 76.1 66.0602 77.7C64.7268 79.3 62.8935 80.1 60.5602 80.1ZM139.923 29.3C138.056 29.2333 136.556 28.6667 135.423 27.6C134.289 26.5333 133.723 25.0333 133.723 23.1C133.789 21.0333 134.489 19.3667 135.823 18.1C137.156 16.7667 138.856 16.1333 140.923 16.2C142.856 16.2667 144.356 16.8333 145.423 17.9C146.556 18.9667 147.089 20.4667 147.023 22.4C146.956 24.4 146.289 26.0667 145.023 27.4C143.756 28.6667 142.056 29.3 139.923 29.3ZM140.023 80C138.023 80 136.456 79.4667 135.323 78.4C134.189 77.2667 133.623 75.3667 133.623 72.7C133.623 71.1667 133.756 69.6667 134.023 68.2C134.356 66.7333 134.723 65.3 135.123 63.9C135.589 62.4333 135.956 60.9333 136.223 59.4C136.556 57.8667 136.723 56.2333 136.723 54.5C136.723 53.3 136.556 52.1667 136.223 51.1C135.889 49.9667 135.156 49.1333 134.023 48.6C133.156 48.1333 132.389 47.6667 131.723 47.2C131.123 46.6667 130.823 46 130.823 45.2C130.823 44.2667 131.256 43.2667 132.123 42.2C132.989 41.1333 134.123 40.2333 135.523 39.5C136.989 38.7 138.489 38.3 140.023 38.3C141.689 38.3 142.889 38.7333 143.623 39.6C144.423 40.4667 144.956 41.5667 145.223 42.9C145.489 44.2333 145.623 45.6 145.623 47C145.623 49.1333 145.456 51.2333 145.123 53.3C144.789 55.3 144.456 57.1667 144.123 58.9C143.856 60.1667 143.656 61.3333 143.523 62.4C143.389 63.4667 143.323 64.4667 143.323 65.4C143.323 67.0667 143.723 68.3333 144.523 69.2C145.323 70 146.456 70.7667 147.923 71.5C148.523 71.8333 148.823 72.3333 148.823 73C148.823 73.5333 148.556 74.3667 148.023 75.5C147.489 76.6333 146.556 77.6667 145.223 78.6C143.956 79.5333 142.223 80 140.023 80ZM250.387 80.3C247.92 80.3 245.62 79.9333 243.487 79.2C241.353 78.4667 239.62 77.4333 238.287 76.1C236.953 74.7667 236.287 73.1667 236.287 71.3C236.287 70.3 236.52 69.3667 236.987 68.5C237.52 67.5667 238.353 67.1 239.487 67.1C240.087 67.1 240.72 67.2667 241.387 67.6C242.587 68.2667 244.12 68.9 245.987 69.5C247.853 70.0333 249.82 70.3 251.887 70.3C254.22 70.3 256.287 69.9667 258.087 69.3C259.887 68.6333 260.787 67.7 260.787 66.5C260.787 65.5667 260.087 64.9 258.687 64.5C257.353 64.1 255.087 63.6667 251.887 63.2C249.687 62.8 247.553 62.3333 245.487 61.8C243.42 61.2667 241.72 60.3667 240.387 59.1C239.053 57.7667 238.387 55.8333 238.387 53.3C238.387 50.8333 239.053 48.4667 240.387 46.2C241.787 43.8667 243.853 41.9333 246.587 40.4C249.32 38.8667 252.653 38.1 256.587 38.1C258.653 38.1 260.653 38.3333 262.587 38.8C264.52 39.2667 266.12 39.9667 267.387 40.9C268.653 41.8333 269.287 43 269.287 44.4C269.287 45.6 268.853 46.7 267.987 47.7C267.187 48.7 266.22 49.5333 265.087 50.2C264.02 50.8 263.12 51.1 262.387 51.1C261.853 51.1 261.22 50.7333 260.487 50C259.353 49.0667 258.087 48.4333 256.687 48.1C255.353 47.7 254.02 47.5 252.687 47.5C250.687 47.5 249.053 47.8 247.787 48.4C246.587 49 245.987 49.7667 245.987 50.7C245.987 51.5667 246.487 52.2667 247.487 52.8C248.553 53.3333 249.853 53.7333 251.387 54C252.92 54.2 254.387 54.4 255.787 54.6C259.653 55.1333 262.72 56.0667 264.987 57.4C267.253 58.6667 268.387 60.9333 268.387 64.2C268.387 66.7333 267.653 69.2667 266.187 71.8C264.787 74.2667 262.72 76.3 259.987 77.9C257.32 79.5 254.12 80.3 250.387 80.3Z" fill="black"/>
</g>
<g filter="url(#filter1_d_0_1)">
<path d="M215.108 25.3C213.975 29.2333 212.675 33.2667 211.208 37.4C209.808 41.5333 208.341 45.4333 206.808 49.1C206.741 49.3 206.541 49.6667 206.208 50.2C205.941 50.7333 205.708 50.9667 205.508 50.9C205.375 50.9 205.275 50.6 205.208 50C205.208 49.3333 205.241 48.8333 205.308 48.5C205.441 47.6333 205.641 46.5667 205.908 45.3C206.175 44.0333 206.441 42.7333 206.708 41.4C207.041 40.0667 207.341 38.7667 207.608 37.5C207.941 36.2333 208.275 35.1333 208.608 34.2C208.741 33.8 208.975 32.9333 209.308 31.6C209.641 30.2667 210.008 28.6667 210.408 26.8C210.808 24.9333 211.208 22.9333 211.608 20.8C212.075 18.6667 212.441 16.6 212.708 14.6C213.041 12.6 213.275 10.7667 213.408 9.1C213.541 7.43333 213.508 6.16666 213.308 5.29999C213.108 4.63333 213.108 4.3 213.308 4.3C213.441 4.3 213.541 4.4 213.608 4.6C213.741 4.73333 213.875 4.86666 214.008 5C214.675 6.2 215.175 7.66666 215.508 9.4C215.908 11.1333 216.141 12.9333 216.208 14.8C216.275 16.6667 216.208 18.5333 216.008 20.4C215.808 22.2667 215.508 23.9 215.108 25.3ZM211.108 2.2C211.975 5.6 212.175 9.16666 211.708 12.9C211.308 16.6333 210.575 20.4333 209.508 24.3C208.441 28.1667 207.241 32.1 205.908 36.1C204.575 40.0333 203.441 44 202.508 48C201.908 50.5333 201.408 53.1667 201.008 55.9C200.675 58.5667 200.508 61.2333 200.508 63.9C200.508 66.5 200.708 69.0333 201.108 71.5C201.575 73.9 202.341 76.0667 203.408 78C203.541 78.2667 203.575 78.4667 203.508 78.6C203.508 78.7333 203.308 78.5333 202.908 78C201.175 76 199.875 73.7333 199.008 71.2C198.208 68.6667 197.741 66 197.608 63.2C197.475 60.4 197.608 57.5 198.008 54.5C198.408 51.5 198.975 48.5667 199.708 45.7C200.708 41.7 201.808 37.7667 203.008 33.9C204.275 30.0333 205.441 26.2667 206.508 22.6C207.641 18.9333 208.575 15.4 209.308 12C210.041 8.53333 210.408 5.2 210.408 1.99999C210.408 1.66666 210.441 1.5 210.508 1.5C210.775 1.5 210.975 1.73333 211.108 2.2ZM229.308 78C226.841 76.8667 224.875 75.1 223.408 72.7C221.941 70.3 221.041 67.5333 220.708 64.4C220.375 61.3333 220.375 58.8 220.708 56.8C221.041 54.7333 221.441 52.7 221.908 50.7C221.975 50.4333 222.108 50 222.308 49.4C222.508 48.7333 222.641 48.0667 222.708 47.4C222.841 46.7333 222.841 46.1667 222.708 45.7C222.641 45.1667 222.375 44.8333 221.908 44.7C220.975 44.5 219.908 44.9333 218.708 46C217.508 47 216.341 48.2667 215.208 49.8C214.141 51.3333 213.141 52.9333 212.208 54.6C211.341 56.2 210.775 57.4667 210.508 58.4C209.908 60.3333 209.275 62.1667 208.608 63.9C207.941 65.6333 207.341 67.3667 206.808 69.1C206.608 69.8333 206.441 70.1667 206.308 70.1C206.175 70.1 206.075 69.9667 206.008 69.7C206.008 69.4333 206.008 69.1333 206.008 68.8C206.008 66.1333 206.208 63.4667 206.608 60.8C207.008 58.0667 207.541 55.3667 208.208 52.7C208.941 50.0333 209.741 47.3667 210.608 44.7C211.475 42.0333 212.308 39.3333 213.108 36.6C214.175 33.2 215.175 29.7333 216.108 26.2C217.108 22.6667 217.775 18.8667 218.108 14.8C218.108 14.4667 218.108 14.3 218.108 14.3C218.108 14.2333 218.141 14.2 218.208 14.2C218.408 14.2 218.575 14.4667 218.708 15C219.041 15.8667 219.175 17.1 219.108 18.7C219.108 20.2333 218.975 21.9333 218.708 23.8C218.508 25.6667 218.175 27.5667 217.708 29.5C217.308 31.4333 216.875 33.1667 216.408 34.7C217.675 33.3667 219.175 32.3333 220.908 31.6C222.641 30.8667 224.708 30.6667 227.108 31C229.841 31.4 231.941 32.4 233.408 34C234.875 35.5333 235.875 37.4 236.408 39.6C236.941 41.8 237.075 44.1667 236.808 46.7C236.608 49.1667 236.208 51.5667 235.608 53.9C235.075 55.7 234.575 57.3 234.108 58.7C233.641 60.0333 233.175 61.2667 232.708 62.4C232.241 63.5333 231.841 64.6 231.508 65.6C231.175 66.6 230.908 67.6667 230.708 68.8C230.575 69.5333 230.441 69.9 230.308 69.9C230.175 69.9 230.041 69.7667 229.908 69.5C229.841 69.2333 229.775 68.9667 229.708 68.7C229.308 67.2333 229.275 65.4333 229.608 63.3C230.008 61.1667 230.508 58.9333 231.108 56.6C231.708 54.2 232.241 51.8 232.708 49.4C233.241 46.9333 233.441 44.6667 233.308 42.6C233.241 40.5333 232.708 38.7333 231.708 37.2C230.708 35.6 229.008 34.5 226.608 33.9C225.608 33.6333 224.508 33.5667 223.308 33.7C222.175 33.7667 221.075 34.0333 220.008 34.5C219.008 34.9 218.108 35.5 217.308 36.3C216.508 37.1 215.975 38.0333 215.708 39.1C216.975 37.7667 218.608 36.6667 220.608 35.8C222.608 34.9333 224.541 34.8 226.408 35.4C228.141 35.9333 229.375 36.9 230.108 38.3C230.841 39.7 231.275 40.9333 231.408 42C231.675 44.3333 231.508 46.4667 230.908 48.4C230.375 50.2667 229.741 52.0667 229.008 53.8C228.875 54 228.675 54.3333 228.408 54.8C228.141 55.2 227.941 55.3667 227.808 55.3C227.675 55.3 227.608 55.0333 227.608 54.5C227.608 53.9667 227.641 53.5667 227.708 53.3C227.908 52.6333 228.075 51.6 228.208 50.2C228.341 48.7333 228.375 47.2333 228.308 45.7C228.308 44.1667 228.108 42.7333 227.708 41.4C227.375 40.0667 226.808 39.1667 226.008 38.7C225.075 38.1667 223.941 38.0333 222.608 38.3C221.275 38.5 219.841 39.3 218.308 40.7C216.975 41.9 215.841 43.3 214.908 44.9C213.975 46.4333 213.175 48.4667 212.508 51C212.908 50.2667 213.541 49.2333 214.408 47.9C215.275 46.5667 216.241 45.3 217.308 44.1C218.441 42.9 219.608 41.9667 220.808 41.3C222.075 40.5667 223.275 40.4667 224.408 41C225.141 41.4 225.608 42.1 225.808 43.1C226.075 44.0333 226.141 45.1 226.008 46.3C225.941 47.5 225.775 48.6667 225.508 49.8C225.241 50.9333 225.008 51.8333 224.808 52.5C224.075 54.5 223.575 56.7 223.308 59.1C223.041 61.4333 223.041 63.7333 223.308 66C223.641 68.2667 224.308 70.4 225.308 72.4C226.308 74.4 227.775 76.1 229.708 77.5C230.308 77.8333 230.408 78 230.008 78C229.675 78 229.441 78 229.308 78ZM231.908 77.2C230.975 76.6667 230.075 76.1 229.208 75.5C228.408 74.9 227.608 73.7333 226.808 72C226.475 71.3333 226.208 70.4333 226.008 69.3C225.875 68.1667 225.775 67.1 225.708 66.1C225.708 65.0333 225.775 64.1667 225.908 63.5C226.041 62.7667 226.208 62.4333 226.408 62.5C226.541 62.5 226.675 62.6667 226.808 63C226.941 63.2667 227.041 63.6 227.108 64C227.175 64.4 227.241 64.8 227.308 65.2C227.375 65.5333 227.408 65.7667 227.408 65.9C227.675 67.3667 227.908 68.4667 228.108 69.2C228.308 69.8667 228.575 70.6 228.908 71.4C229.441 72.4667 229.975 73.4333 230.508 74.3C231.041 75.1667 231.708 75.9667 232.508 76.7C232.841 76.9667 232.908 77.1667 232.708 77.3C232.575 77.4333 232.308 77.4 231.908 77.2ZM206.608 78C206.675 78 206.608 78.0333 206.408 78.1C206.275 78.1667 205.975 78.1333 205.508 78C204.975 77.7333 204.408 77.2333 203.808 76.5C203.275 75.7667 202.841 74.3333 202.508 72.2C202.375 71.3333 202.308 70.3 202.308 69.1C202.308 67.8333 202.341 66.6667 202.408 65.6C202.541 64.4667 202.708 63.5 202.908 62.7C203.108 61.9 203.341 61.5333 203.608 61.6C203.675 61.6 203.741 61.8 203.808 62.2C203.875 62.6 203.941 63.0667 204.008 63.6C204.075 64.0667 204.108 64.5667 204.108 65.1C204.108 65.5667 204.108 65.9 204.108 66.1C204.175 67.5667 204.241 68.6667 204.308 69.4C204.441 70.0667 204.608 71 204.808 72.2C205.008 73.4667 205.241 74.6333 205.508 75.7C205.775 76.7 206.141 77.4667 206.608 78Z" fill="black"/>
</g>
<g filter="url(#filter2_d_0_1)">
<path d="M170.947 25.3C169.813 29.2333 168.513 33.2667 167.047 37.4C165.647 41.5333 164.18 45.4333 162.647 49.1C162.58 49.3 162.38 49.6667 162.047 50.2C161.78 50.7333 161.547 50.9667 161.347 50.9C161.213 50.9 161.113 50.6 161.047 50C161.047 49.3333 161.08 48.8333 161.147 48.5C161.28 47.6333 161.48 46.5667 161.747 45.3C162.013 44.0333 162.28 42.7333 162.547 41.4C162.88 40.0667 163.18 38.7667 163.447 37.5C163.78 36.2333 164.113 35.1333 164.447 34.2C164.58 33.8 164.813 32.9333 165.147 31.6C165.48 30.2667 165.847 28.6667 166.247 26.8C166.647 24.9333 167.047 22.9333 167.447 20.8C167.913 18.6667 168.28 16.6 168.547 14.6C168.88 12.6 169.113 10.7667 169.247 9.1C169.38 7.43333 169.347 6.16666 169.147 5.29999C168.947 4.63333 168.947 4.3 169.147 4.3C169.28 4.3 169.38 4.4 169.447 4.6C169.58 4.73333 169.713 4.86666 169.847 5C170.513 6.2 171.013 7.66666 171.347 9.4C171.747 11.1333 171.98 12.9333 172.047 14.8C172.113 16.6667 172.047 18.5333 171.847 20.4C171.647 22.2667 171.347 23.9 170.947 25.3ZM166.947 2.2C167.813 5.6 168.013 9.16666 167.547 12.9C167.147 16.6333 166.413 20.4333 165.347 24.3C164.28 28.1667 163.08 32.1 161.747 36.1C160.413 40.0333 159.28 44 158.347 48C157.747 50.5333 157.247 53.1667 156.847 55.9C156.513 58.5667 156.347 61.2333 156.347 63.9C156.347 66.5 156.547 69.0333 156.947 71.5C157.413 73.9 158.18 76.0667 159.247 78C159.38 78.2667 159.413 78.4667 159.347 78.6C159.347 78.7333 159.147 78.5333 158.747 78C157.013 76 155.713 73.7333 154.847 71.2C154.047 68.6667 153.58 66 153.447 63.2C153.313 60.4 153.447 57.5 153.847 54.5C154.247 51.5 154.813 48.5667 155.547 45.7C156.547 41.7 157.647 37.7667 158.847 33.9C160.113 30.0333 161.28 26.2667 162.347 22.6C163.48 18.9333 164.413 15.4 165.147 12C165.88 8.53333 166.247 5.2 166.247 1.99999C166.247 1.66666 166.28 1.5 166.347 1.5C166.613 1.5 166.813 1.73333 166.947 2.2ZM185.147 78C182.68 76.8667 180.713 75.1 179.247 72.7C177.78 70.3 176.88 67.5333 176.547 64.4C176.213 61.3333 176.213 58.8 176.547 56.8C176.88 54.7333 177.28 52.7 177.747 50.7C177.813 50.4333 177.947 50 178.147 49.4C178.347 48.7333 178.48 48.0667 178.547 47.4C178.68 46.7333 178.68 46.1667 178.547 45.7C178.48 45.1667 178.213 44.8333 177.747 44.7C176.813 44.5 175.747 44.9333 174.547 46C173.347 47 172.18 48.2667 171.047 49.8C169.98 51.3333 168.98 52.9333 168.047 54.6C167.18 56.2 166.613 57.4667 166.347 58.4C165.747 60.3333 165.113 62.1667 164.447 63.9C163.78 65.6333 163.18 67.3667 162.647 69.1C162.447 69.8333 162.28 70.1667 162.147 70.1C162.013 70.1 161.913 69.9667 161.847 69.7C161.847 69.4333 161.847 69.1333 161.847 68.8C161.847 66.1333 162.047 63.4667 162.447 60.8C162.847 58.0667 163.38 55.3667 164.047 52.7C164.78 50.0333 165.58 47.3667 166.447 44.7C167.313 42.0333 168.147 39.3333 168.947 36.6C170.013 33.2 171.013 29.7333 171.947 26.2C172.947 22.6667 173.613 18.8667 173.947 14.8C173.947 14.4667 173.947 14.3 173.947 14.3C173.947 14.2333 173.98 14.2 174.047 14.2C174.247 14.2 174.413 14.4667 174.547 15C174.88 15.8667 175.013 17.1 174.947 18.7C174.947 20.2333 174.813 21.9333 174.547 23.8C174.347 25.6667 174.013 27.5667 173.547 29.5C173.147 31.4333 172.713 33.1667 172.247 34.7C173.513 33.3667 175.013 32.3333 176.747 31.6C178.48 30.8667 180.547 30.6667 182.947 31C185.68 31.4 187.78 32.4 189.247 34C190.713 35.5333 191.713 37.4 192.247 39.6C192.78 41.8 192.913 44.1667 192.647 46.7C192.447 49.1667 192.047 51.5667 191.447 53.9C190.913 55.7 190.413 57.3 189.947 58.7C189.48 60.0333 189.013 61.2667 188.547 62.4C188.08 63.5333 187.68 64.6 187.347 65.6C187.013 66.6 186.747 67.6667 186.547 68.8C186.413 69.5333 186.28 69.9 186.147 69.9C186.013 69.9 185.88 69.7667 185.747 69.5C185.68 69.2333 185.613 68.9667 185.547 68.7C185.147 67.2333 185.113 65.4333 185.447 63.3C185.847 61.1667 186.347 58.9333 186.947 56.6C187.547 54.2 188.08 51.8 188.547 49.4C189.08 46.9333 189.28 44.6667 189.147 42.6C189.08 40.5333 188.547 38.7333 187.547 37.2C186.547 35.6 184.847 34.5 182.447 33.9C181.447 33.6333 180.347 33.5667 179.147 33.7C178.013 33.7667 176.913 34.0333 175.847 34.5C174.847 34.9 173.947 35.5 173.147 36.3C172.347 37.1 171.813 38.0333 171.547 39.1C172.813 37.7667 174.447 36.6667 176.447 35.8C178.447 34.9333 180.38 34.8 182.247 35.4C183.98 35.9333 185.213 36.9 185.947 38.3C186.68 39.7 187.113 40.9333 187.247 42C187.513 44.3333 187.347 46.4667 186.747 48.4C186.213 50.2667 185.58 52.0667 184.847 53.8C184.713 54 184.513 54.3333 184.247 54.8C183.98 55.2 183.78 55.3667 183.647 55.3C183.513 55.3 183.447 55.0333 183.447 54.5C183.447 53.9667 183.48 53.5667 183.547 53.3C183.747 52.6333 183.913 51.6 184.047 50.2C184.18 48.7333 184.213 47.2333 184.147 45.7C184.147 44.1667 183.947 42.7333 183.547 41.4C183.213 40.0667 182.647 39.1667 181.847 38.7C180.913 38.1667 179.78 38.0333 178.447 38.3C177.113 38.5 175.68 39.3 174.147 40.7C172.813 41.9 171.68 43.3 170.747 44.9C169.813 46.4333 169.013 48.4667 168.347 51C168.747 50.2667 169.38 49.2333 170.247 47.9C171.113 46.5667 172.08 45.3 173.147 44.1C174.28 42.9 175.447 41.9667 176.647 41.3C177.913 40.5667 179.113 40.4667 180.247 41C180.98 41.4 181.447 42.1 181.647 43.1C181.913 44.0333 181.98 45.1 181.847 46.3C181.78 47.5 181.613 48.6667 181.347 49.8C181.08 50.9333 180.847 51.8333 180.647 52.5C179.913 54.5 179.413 56.7 179.147 59.1C178.88 61.4333 178.88 63.7333 179.147 66C179.48 68.2667 180.147 70.4 181.147 72.4C182.147 74.4 183.613 76.1 185.547 77.5C186.147 77.8333 186.247 78 185.847 78C185.513 78 185.28 78 185.147 78ZM187.747 77.2C186.813 76.6667 185.913 76.1 185.047 75.5C184.247 74.9 183.447 73.7333 182.647 72C182.313 71.3333 182.047 70.4333 181.847 69.3C181.713 68.1667 181.613 67.1 181.547 66.1C181.547 65.0333 181.613 64.1667 181.747 63.5C181.88 62.7667 182.047 62.4333 182.247 62.5C182.38 62.5 182.513 62.6667 182.647 63C182.78 63.2667 182.88 63.6 182.947 64C183.013 64.4 183.08 64.8 183.147 65.2C183.213 65.5333 183.247 65.7667 183.247 65.9C183.513 67.3667 183.747 68.4667 183.947 69.2C184.147 69.8667 184.413 70.6 184.747 71.4C185.28 72.4667 185.813 73.4333 186.347 74.3C186.88 75.1667 187.547 75.9667 188.347 76.7C188.68 76.9667 188.747 77.1667 188.547 77.3C188.413 77.4333 188.147 77.4 187.747 77.2ZM162.447 78C162.513 78 162.447 78.0333 162.247 78.1C162.113 78.1667 161.813 78.1333 161.347 78C160.813 77.7333 160.247 77.2333 159.647 76.5C159.113 75.7667 158.68 74.3333 158.347 72.2C158.213 71.3333 158.147 70.3 158.147 69.1C158.147 67.8333 158.18 66.6667 158.247 65.6C158.38 64.4667 158.547 63.5 158.747 62.7C158.947 61.9 159.18 61.5333 159.447 61.6C159.513 61.6 159.58 61.8 159.647 62.2C159.713 62.6 159.78 63.0667 159.847 63.6C159.913 64.0667 159.947 64.5667 159.947 65.1C159.947 65.5667 159.947 65.9 159.947 66.1C160.013 67.5667 160.08 68.6667 160.147 69.4C160.28 70.0667 160.447 71 160.647 72.2C160.847 73.4667 161.08 74.6333 161.347 75.7C161.613 76.7 161.98 77.4667 162.447 78Z" fill="black"/>
</g>
<defs>
<filter id="filter0_i_0_1" x="3.66953" y="16.1" width="265.617" height="68.2" filterUnits="userSpaceOnUse" color-interpolation-filters="sRGB">
<feFlood flood-opacity="0" result="BackgroundImageFix"/>
<feBlend mode="normal" in="SourceGraphic" in2="BackgroundImageFix" result="shape"/>
<feColorMatrix in="SourceAlpha" type="matrix" values="0 0 0 0 0 0 0 0 0 0 0 0 0 0 0 0 0 0 127 0" result="hardAlpha"/>
<feOffset dy="4"/>
<feGaussianBlur stdDeviation="2"/>
<feComposite in2="hardAlpha" operator="arithmetic" k2="-1" k3="1"/>
<feColorMatrix type="matrix" values="0 0 0 0 0 0 0 0 0 0 0 0 0 0 0 0 0 0 0.25 0"/>
<feBlend mode="normal" in2="shape" result="effect1_innerShadow_0_1"/>
</filter>
<filter id="filter1_d_0_1" x="193.408" y="1.5" width="47.8" height="85.3" filterUnits="userSpaceOnUse" color-interpolation-filters="sRGB">
<feFlood flood-opacity="0" result="BackgroundImageFix"/>
<feColorMatrix in="SourceAlpha" type="matrix" values="0 0 0 0 0 0 0 0 0 0 0 0 0 0 0 0 0 0 127 0" result="hardAlpha"/>
<feOffset dy="4"/>
<feGaussianBlur stdDeviation="2"/>
<feComposite in2="hardAlpha" operator="out"/>
<feColorMatrix type="matrix" values="0 0 0 0 0 0 0 0 0 0 0 0 0 0 0 0 0 0 0.25 0"/>
<feBlend mode="normal" in2="BackgroundImageFix" result="effect1_dropShadow_0_1"/>
<feBlend mode="normal" in="SourceGraphic" in2="effect1_dropShadow_0_1" result="shape"/>
</filter>
<filter id="filter2_d_0_1" x="149.247" y="1.5" width="47.8" height="85.3" filterUnits="userSpaceOnUse" color-interpolation-filters="sRGB">
<feFlood flood-opacity="0" result="BackgroundImageFix"/>
<feColorMatrix in="SourceAlpha" type="matrix" values="0 0 0 0 0 0 0 0 0 0 0 0 0 0 0 0 0 0 127 0" result="hardAlpha"/>
<feOffset dy="4"/>
<feGaussianBlur stdDeviation="2"/>
<feComposite in2="hardAlpha" operator="out"/>
<feColorMatrix type="matrix" values="0 0 0 0 0 0 0 0 0 0 0 0 0 0 0 0 0 0 0.25 0"/>
<feBlend mode="normal" in2="BackgroundImageFix" result="effect1_dropShadow_0_1"/>
<feBlend mode="normal" in="SourceGraphic" in2="effect1_dropShadow_0_1" result="shape"/>
</filter>
</defs>
</svg>
