<svg version="1.1" xmlns="http://www.w3.org/2000/svg" viewBox="0 0 73.37027987587123 88.1986370199329" width="220.1108396276137" height="264.5959110597987">
  <!-- svg-source:excalidraw -->
  
  <defs>
    <style class="style-fonts">
      @font-face {
        font-family: "Virgil";
        src: url("https://excalidraw.com/Virgil.woff2");
      }
      @font-face {
        font-family: "Cascadia";
        src: url("https://excalidraw.com/Cascadia.woff2");
      }
    </style>
  </defs>
  <g stroke-linecap="round"><g transform="translate(55.79688559075521 34.724125617726486) rotate(11.53163593526121 -1.7360388982806967 21.270197688521762)"><path d="M0.54 0.87 C0.47 4.44, 0.21 13.64, -0.55 20.29 C-1.31 26.94, -3.5 37.53, -4.01 40.77 M-0.63 0.28 C-0.75 3.59, -0.78 11.41, -0.93 18.4 C-1.07 25.4, -1.06 38.58, -1.5 42.26" stroke="#222" stroke-width="2" fill="none"></path></g></g><g stroke-linecap="round"><g transform="translate(10.535044072233177 76.69104778585643) rotate(0 26.15009586570244 -21.53890183285762)" fill-rule="evenodd"><path d="M0.21 0.22 L2.03 -20.89 L5.36 -29.52 L12.82 -41.01 L22 -42.7 L29.26 -44.07 L33.1 -39.27 L43.54 -31.26 L50.07 -17.87 L50.3 -10.09 L48.26 -2.12 L41.58 0.76 L-1.09 -0.68" stroke="none" stroke-width="0" fill="#ced4da" fill-rule="evenodd"></path><path d="M1.08 0.45 C1.78 -4.49, 1.08 -21.24, 4.79 -28.75 C8.49 -36.25, 17.17 -44.07, 23.3 -44.56 C29.43 -45.05, 37.34 -38.51, 41.57 -31.67 C45.8 -24.83, 55.43 -8.66, 48.69 -3.5 C41.95 1.65, 9.19 -1.48, 1.12 -0.73 M0.18 -0.36 C1.23 -5.75, 3.42 -23.49, 7.12 -30.7 C10.81 -37.9, 16.58 -43.06, 22.35 -43.6 C28.11 -44.14, 37 -40.63, 41.71 -33.92 C46.41 -27.22, 57.61 -9.27, 50.57 -3.37 C43.53 2.54, 7.72 0.92, -0.54 1.51" stroke="#222" stroke-width="2" fill="none"></path></g></g><g stroke-linecap="round" transform="translate(22.988914908548963 10) rotate(0 12.612971703843186 11.036350240862816)"><path d="M7.97 -0.08 C10.18 -0.95, 13.65 -0.43, 16.26 0.59 C18.86 1.61, 22.05 3.81, 23.59 6.02 C25.12 8.23, 25.99 11.64, 25.44 13.85 C24.9 16.05, 22.57 18.03, 20.32 19.27 C18.08 20.51, 14.47 21.21, 11.98 21.28 C9.5 21.35, 7.24 21.18, 5.41 19.69 C3.57 18.19, 1.61 14.58, 0.95 12.29 C0.3 10, 0.11 7.78, 1.48 5.93 C2.84 4.08, 7.31 2.12, 9.15 1.17 C10.99 0.22, 12.47 0.14, 12.51 0.22 M11.8 0.84 C14.09 0.59, 16.48 0.2, 18.46 1.53 C20.44 2.87, 22.46 6.55, 23.68 8.83 C24.89 11.12, 26.8 13.06, 25.74 15.26 C24.68 17.46, 20.14 20.82, 17.31 22.05 C14.49 23.28, 11.02 23.44, 8.78 22.67 C6.55 21.89, 5.32 19.44, 3.91 17.4 C2.49 15.36, 0.33 12.61, 0.31 10.44 C0.29 8.28, 1.82 5.88, 3.78 4.41 C5.74 2.93, 10.86 2.41, 12.08 1.6 C13.3 0.79, 11.39 -0.57, 11.11 -0.47" stroke="none" stroke-width="0" fill="#ced4da"></path><path d="M11.25 -0.37 C13.8 -0.65, 16.7 1.22, 18.82 2.57 C20.94 3.93, 22.92 5.68, 23.97 7.78 C25.03 9.89, 26.04 13.14, 25.17 15.21 C24.29 17.28, 21.13 19.11, 18.72 20.2 C16.31 21.3, 13.39 22.24, 10.69 21.77 C7.99 21.3, 4.45 19.38, 2.5 17.4 C0.56 15.42, -1.2 12.11, -0.99 9.9 C-0.78 7.69, 1.61 5.79, 3.77 4.12 C5.93 2.45, 10.14 0.35, 11.96 -0.14 C13.79 -0.63, 14.57 0.93, 14.72 1.16 M9.43 0.88 C12.31 0.6, 17.7 1.26, 20.05 2.21 C22.41 3.15, 22.72 4.55, 23.56 6.55 C24.41 8.55, 25.68 11.96, 25.15 14.2 C24.62 16.44, 22.97 18.88, 20.4 19.98 C17.83 21.08, 12.44 21.08, 9.73 20.78 C7.02 20.48, 5.98 19.54, 4.12 18.19 C2.27 16.84, -0.96 15.01, -1.39 12.66 C-1.82 10.31, -0.24 6.35, 1.54 4.09 C3.32 1.84, 7.67 -0.36, 9.29 -0.87 C10.92 -1.38, 11.1 0.61, 11.3 1.03" stroke="#222" stroke-width="2" fill="none"></path></g></svg>