<svg
  width="354"
  height="199"
  viewBox="0 0 354 199"
  fill="none"
  xmlns="http://www.w3.org/2000/svg"
>
  <g filter="url(#filter0_i_0_1)">
    <path
      d="M56.9695 133.3C52.9695 133.3 49.7362 132.067 47.2695 129.6C44.8695 127.067 43.6695 123.467 43.6695 118.8C43.6695 115.467 44.3029 112.167 45.5695 108.9C46.9029 105.567 48.8029 102.567 51.2695 99.9C53.7362 97.2333 56.7029 95.1 60.1695 93.5C63.6362 91.9 67.5362 91.1 71.8695 91.1C75.8695 91.1 79.2695 91.8 82.0695 93.2C84.9362 94.5333 86.3695 96.3667 86.3695 98.7C86.3695 99.3 86.3029 100.1 86.1695 101.1C86.0362 102.033 85.8695 102.8 85.6695 103.4C85.4695 103.933 85.1695 104.433 84.7695 104.9C84.4362 105.3 83.9695 105.5 83.3695 105.5C83.1029 105.5 82.6029 105.4 81.8695 105.2C81.6029 106.6 81.4029 107.967 81.2695 109.3C81.1362 110.633 81.0695 111.967 81.0695 113.3C81.0695 115.833 81.4362 118.1 82.1695 120.1C82.9695 122.033 84.5029 123.233 86.7695 123.7C87.3695 123.833 87.8362 124.033 88.1695 124.3C88.5695 124.567 88.7695 125.133 88.7695 126C88.7695 126.733 88.5695 127.667 88.1695 128.8C87.8362 129.933 87.1362 130.967 86.0695 131.9C85.0695 132.767 83.6029 133.2 81.6695 133.2C79.0695 133.2 77.0695 132.267 75.6695 130.4C74.2695 128.467 73.5695 125.733 73.5695 122.2C71.7695 125.467 69.4695 128.133 66.6695 130.2C63.9362 132.267 60.7029 133.3 56.9695 133.3ZM60.1695 122.9C62.8362 122.9 65.1695 122.067 67.1695 120.4C69.2362 118.733 70.8362 116.633 71.9695 114.1C72.7029 112.5 73.2695 110.767 73.6695 108.9C74.0695 106.967 74.3362 105.067 74.4695 103.2C73.3362 102.667 72.0362 102.233 70.5695 101.9C69.1029 101.567 67.5695 101.4 65.9695 101.4C61.9029 101.4 58.5362 102.6 55.8695 105C53.2695 107.4 51.9695 110.4 51.9695 114C51.9695 116.667 52.7029 118.833 54.1695 120.5C55.6362 122.1 57.6362 122.9 60.1695 122.9ZM100.56 133.1C98.1602 133.1 97.0935 132.3 97.3602 130.7C98.0935 127.833 98.6935 124.933 99.1602 122C99.6935 119 99.9602 116.133 99.9602 113.4C99.9602 109.867 99.7268 107.3 99.2602 105.7C98.8602 104.033 98.2935 102.9 97.5602 102.3C96.8268 101.633 95.9268 101.133 94.8602 100.8C94.3935 100.6 93.9602 100.333 93.5602 100C93.2268 99.6667 93.0602 99.2 93.0602 98.6C93.0602 97.6667 93.4268 96.6333 94.1602 95.5C94.8935 94.3667 95.9268 93.4 97.2602 92.6C98.6602 91.7333 100.227 91.3 101.96 91.3C104.227 91.3 105.793 92.1 106.66 93.7C107.527 95.2333 107.96 97.2667 107.96 99.8C107.96 101.467 107.793 103.333 107.46 105.4C107.127 107.467 106.793 109.333 106.46 111L106.66 111.1C107.727 107.567 109.027 104.3 110.56 101.3C112.16 98.3 114.06 95.8667 116.26 94C118.527 92.1333 121.127 91.2 124.06 91.2C127.06 91.2 129.427 92.2333 131.16 94.3C132.893 96.3 133.76 99.2667 133.76 103.2V105.4C135.693 101.333 138.027 97.9333 140.76 95.2C143.56 92.4667 146.927 91.1 150.86 91.1C154.06 91.1 156.56 92.1667 158.36 94.3C160.16 96.4333 161.06 99.1 161.06 102.3C161.06 103.567 160.927 104.8 160.66 106C160.393 107.133 160.093 108.267 159.76 109.4C159.493 110.467 159.227 111.567 158.96 112.7C158.693 113.833 158.56 114.967 158.56 116.1C158.56 120.1 160.26 122.7 163.66 123.9C164.127 124.1 164.493 124.333 164.76 124.6C165.027 124.8 165.16 125.2 165.16 125.8C165.16 126.4 164.96 127.267 164.56 128.4C164.227 129.533 163.527 130.6 162.46 131.6C161.393 132.533 159.86 133 157.86 133C155.26 133 153.26 132.067 151.86 130.2C150.46 128.267 149.76 125.833 149.76 122.9C149.76 121.433 149.893 119.9 150.16 118.3C150.427 116.7 150.76 115.167 151.16 113.7C151.493 112.367 151.76 111.1 151.96 109.9C152.227 108.7 152.36 107.667 152.36 106.8C152.36 105.2 151.96 104.033 151.16 103.3C150.427 102.567 149.427 102.2 148.16 102.2C146.027 102.2 144.093 102.867 142.36 104.2C140.693 105.533 139.193 107.267 137.86 109.4C136.593 111.533 135.493 113.867 134.56 116.4C134.627 117 134.66 117.8 134.66 118.8C134.727 119.733 134.76 120.567 134.76 121.3C134.76 122.567 134.66 123.9 134.46 125.3C134.327 126.7 134.027 127.867 133.56 128.8C133.027 130.067 132.227 131.1 131.16 131.9C130.16 132.7 128.793 133.1 127.06 133.1C126.327 133.1 125.627 132.933 124.96 132.6C124.293 132.333 123.96 131.867 123.96 131.2C123.96 130.933 124.16 129.767 124.56 127.7C124.96 125.567 125.36 122.967 125.76 119.9C126.16 116.833 126.36 113.833 126.36 110.9C126.36 107.7 126.027 105.5 125.36 104.3C124.693 103.033 123.693 102.4 122.36 102.4C120.693 102.4 119.093 103.1 117.56 104.5C116.093 105.9 114.727 107.7 113.46 109.9C112.26 112.1 111.193 114.4 110.26 116.8C109.393 119.2 108.693 121.433 108.16 123.5V124.6C108.16 127.067 107.46 129.1 106.06 130.7C104.727 132.3 102.893 133.1 100.56 133.1ZM179.923 82.3C178.056 82.2333 176.556 81.6667 175.423 80.6C174.289 79.5333 173.723 78.0333 173.723 76.1C173.789 74.0333 174.489 72.3667 175.823 71.1C177.156 69.7667 178.856 69.1333 180.923 69.2C182.856 69.2667 184.356 69.8333 185.423 70.9C186.556 71.9667 187.089 73.4667 187.023 75.4C186.956 77.4 186.289 79.0667 185.023 80.4C183.756 81.6667 182.056 82.3 179.923 82.3ZM180.023 133C178.023 133 176.456 132.467 175.323 131.4C174.189 130.267 173.623 128.367 173.623 125.7C173.623 124.167 173.756 122.667 174.023 121.2C174.356 119.733 174.723 118.3 175.123 116.9C175.589 115.433 175.956 113.933 176.223 112.4C176.556 110.867 176.723 109.233 176.723 107.5C176.723 106.3 176.556 105.167 176.223 104.1C175.889 102.967 175.156 102.133 174.023 101.6C173.156 101.133 172.389 100.667 171.723 100.2C171.123 99.6667 170.823 99 170.823 98.2C170.823 97.2667 171.256 96.2667 172.123 95.2C172.989 94.1333 174.123 93.2333 175.523 92.5C176.989 91.7 178.489 91.3 180.023 91.3C181.689 91.3 182.889 91.7333 183.623 92.6C184.423 93.4667 184.956 94.5667 185.223 95.9C185.489 97.2333 185.623 98.6 185.623 100C185.623 102.133 185.456 104.233 185.123 106.3C184.789 108.3 184.456 110.167 184.123 111.9C183.856 113.167 183.656 114.333 183.523 115.4C183.389 116.467 183.323 117.467 183.323 118.4C183.323 120.067 183.723 121.333 184.523 122.2C185.323 123 186.456 123.767 187.923 124.5C188.523 124.833 188.823 125.333 188.823 126C188.823 126.533 188.556 127.367 188.023 128.5C187.489 129.633 186.556 130.667 185.223 131.6C183.956 132.533 182.223 133 180.023 133ZM290.387 133.3C287.92 133.3 285.62 132.933 283.487 132.2C281.353 131.467 279.62 130.433 278.287 129.1C276.953 127.767 276.287 126.167 276.287 124.3C276.287 123.3 276.52 122.367 276.987 121.5C277.52 120.567 278.353 120.1 279.487 120.1C280.087 120.1 280.72 120.267 281.387 120.6C282.587 121.267 284.12 121.9 285.987 122.5C287.853 123.033 289.82 123.3 291.887 123.3C294.22 123.3 296.287 122.967 298.087 122.3C299.887 121.633 300.787 120.7 300.787 119.5C300.787 118.567 300.087 117.9 298.687 117.5C297.353 117.1 295.087 116.667 291.887 116.2C289.687 115.8 287.553 115.333 285.487 114.8C283.42 114.267 281.72 113.367 280.387 112.1C279.053 110.767 278.387 108.833 278.387 106.3C278.387 103.833 279.053 101.467 280.387 99.2C281.787 96.8667 283.853 94.9333 286.587 93.4C289.32 91.8667 292.653 91.1 296.587 91.1C298.653 91.1 300.653 91.3333 302.587 91.8C304.52 92.2667 306.12 92.9667 307.387 93.9C308.653 94.8333 309.287 96 309.287 97.4C309.287 98.6 308.853 99.7 307.987 100.7C307.187 101.7 306.22 102.533 305.087 103.2C304.02 103.8 303.12 104.1 302.387 104.1C301.853 104.1 301.22 103.733 300.487 103C299.353 102.067 298.087 101.433 296.687 101.1C295.353 100.7 294.02 100.5 292.687 100.5C290.687 100.5 289.053 100.8 287.787 101.4C286.587 102 285.987 102.767 285.987 103.7C285.987 104.567 286.487 105.267 287.487 105.8C288.553 106.333 289.853 106.733 291.387 107C292.92 107.2 294.387 107.4 295.787 107.6C299.653 108.133 302.72 109.067 304.987 110.4C307.253 111.667 308.387 113.933 308.387 117.2C308.387 119.733 307.653 122.267 306.187 124.8C304.787 127.267 302.72 129.3 299.987 130.9C297.32 132.5 294.12 133.3 290.387 133.3Z"
      fill="black"
    />
  </g>
  <g filter="url(#filter1_d_0_1)">
    <path
      d="M255.108 78.3C253.975 82.2333 252.675 86.2667 251.208 90.4C249.808 94.5333 248.341 98.4333 246.808 102.1C246.741 102.3 246.541 102.667 246.208 103.2C245.941 103.733 245.708 103.967 245.508 103.9C245.375 103.9 245.275 103.6 245.208 103C245.208 102.333 245.241 101.833 245.308 101.5C245.441 100.633 245.641 99.5667 245.908 98.3C246.175 97.0333 246.441 95.7333 246.708 94.4C247.041 93.0667 247.341 91.7667 247.608 90.5C247.941 89.2333 248.275 88.1333 248.608 87.2C248.741 86.8 248.975 85.9333 249.308 84.6C249.641 83.2667 250.008 81.6667 250.408 79.8C250.808 77.9333 251.208 75.9333 251.608 73.8C252.075 71.6667 252.441 69.6 252.708 67.6C253.041 65.6 253.275 63.7667 253.408 62.1C253.541 60.4333 253.508 59.1667 253.308 58.3C253.108 57.6333 253.108 57.3 253.308 57.3C253.441 57.3 253.541 57.4 253.608 57.6C253.741 57.7333 253.875 57.8667 254.008 58C254.675 59.2 255.175 60.6667 255.508 62.4C255.908 64.1333 256.141 65.9333 256.208 67.8C256.275 69.6667 256.208 71.5333 256.008 73.4C255.808 75.2667 255.508 76.9 255.108 78.3ZM251.108 55.2C251.975 58.6 252.175 62.1667 251.708 65.9C251.308 69.6333 250.575 73.4333 249.508 77.3C248.441 81.1667 247.241 85.1 245.908 89.1C244.575 93.0333 243.441 97 242.508 101C241.908 103.533 241.408 106.167 241.008 108.9C240.675 111.567 240.508 114.233 240.508 116.9C240.508 119.5 240.708 122.033 241.108 124.5C241.575 126.9 242.341 129.067 243.408 131C243.541 131.267 243.575 131.467 243.508 131.6C243.508 131.733 243.308 131.533 242.908 131C241.175 129 239.875 126.733 239.008 124.2C238.208 121.667 237.741 119 237.608 116.2C237.475 113.4 237.608 110.5 238.008 107.5C238.408 104.5 238.975 101.567 239.708 98.7C240.708 94.7 241.808 90.7667 243.008 86.9C244.275 83.0333 245.441 79.2667 246.508 75.6C247.641 71.9333 248.575 68.4 249.308 65C250.041 61.5333 250.408 58.2 250.408 55C250.408 54.6667 250.441 54.5 250.508 54.5C250.775 54.5 250.975 54.7333 251.108 55.2ZM269.308 131C266.841 129.867 264.875 128.1 263.408 125.7C261.941 123.3 261.041 120.533 260.708 117.4C260.375 114.333 260.375 111.8 260.708 109.8C261.041 107.733 261.441 105.7 261.908 103.7C261.975 103.433 262.108 103 262.308 102.4C262.508 101.733 262.641 101.067 262.708 100.4C262.841 99.7333 262.841 99.1667 262.708 98.7C262.641 98.1667 262.375 97.8333 261.908 97.7C260.975 97.5 259.908 97.9333 258.708 99C257.508 100 256.341 101.267 255.208 102.8C254.141 104.333 253.141 105.933 252.208 107.6C251.341 109.2 250.775 110.467 250.508 111.4C249.908 113.333 249.275 115.167 248.608 116.9C247.941 118.633 247.341 120.367 246.808 122.1C246.608 122.833 246.441 123.167 246.308 123.1C246.175 123.1 246.075 122.967 246.008 122.7C246.008 122.433 246.008 122.133 246.008 121.8C246.008 119.133 246.208 116.467 246.608 113.8C247.008 111.067 247.541 108.367 248.208 105.7C248.941 103.033 249.741 100.367 250.608 97.7C251.475 95.0333 252.308 92.3333 253.108 89.6C254.175 86.2 255.175 82.7333 256.108 79.2C257.108 75.6667 257.775 71.8667 258.108 67.8C258.108 67.4667 258.108 67.3 258.108 67.3C258.108 67.2333 258.141 67.2 258.208 67.2C258.408 67.2 258.575 67.4667 258.708 68C259.041 68.8667 259.175 70.1 259.108 71.7C259.108 73.2333 258.975 74.9333 258.708 76.8C258.508 78.6667 258.175 80.5667 257.708 82.5C257.308 84.4333 256.875 86.1667 256.408 87.7C257.675 86.3667 259.175 85.3333 260.908 84.6C262.641 83.8667 264.708 83.6667 267.108 84C269.841 84.4 271.941 85.4 273.408 87C274.875 88.5333 275.875 90.4 276.408 92.6C276.941 94.8 277.075 97.1667 276.808 99.7C276.608 102.167 276.208 104.567 275.608 106.9C275.075 108.7 274.575 110.3 274.108 111.7C273.641 113.033 273.175 114.267 272.708 115.4C272.241 116.533 271.841 117.6 271.508 118.6C271.175 119.6 270.908 120.667 270.708 121.8C270.575 122.533 270.441 122.9 270.308 122.9C270.175 122.9 270.041 122.767 269.908 122.5C269.841 122.233 269.775 121.967 269.708 121.7C269.308 120.233 269.275 118.433 269.608 116.3C270.008 114.167 270.508 111.933 271.108 109.6C271.708 107.2 272.241 104.8 272.708 102.4C273.241 99.9333 273.441 97.6667 273.308 95.6C273.241 93.5333 272.708 91.7333 271.708 90.2C270.708 88.6 269.008 87.5 266.608 86.9C265.608 86.6333 264.508 86.5667 263.308 86.7C262.175 86.7667 261.075 87.0333 260.008 87.5C259.008 87.9 258.108 88.5 257.308 89.3C256.508 90.1 255.975 91.0333 255.708 92.1C256.975 90.7667 258.608 89.6667 260.608 88.8C262.608 87.9333 264.541 87.8 266.408 88.4C268.141 88.9333 269.375 89.9 270.108 91.3C270.841 92.7 271.275 93.9333 271.408 95C271.675 97.3333 271.508 99.4667 270.908 101.4C270.375 103.267 269.741 105.067 269.008 106.8C268.875 107 268.675 107.333 268.408 107.8C268.141 108.2 267.941 108.367 267.808 108.3C267.675 108.3 267.608 108.033 267.608 107.5C267.608 106.967 267.641 106.567 267.708 106.3C267.908 105.633 268.075 104.6 268.208 103.2C268.341 101.733 268.375 100.233 268.308 98.7C268.308 97.1667 268.108 95.7333 267.708 94.4C267.375 93.0667 266.808 92.1667 266.008 91.7C265.075 91.1667 263.941 91.0333 262.608 91.3C261.275 91.5 259.841 92.3 258.308 93.7C256.975 94.9 255.841 96.3 254.908 97.9C253.975 99.4333 253.175 101.467 252.508 104C252.908 103.267 253.541 102.233 254.408 100.9C255.275 99.5667 256.241 98.3 257.308 97.1C258.441 95.9 259.608 94.9667 260.808 94.3C262.075 93.5667 263.275 93.4667 264.408 94C265.141 94.4 265.608 95.1 265.808 96.1C266.075 97.0333 266.141 98.1 266.008 99.3C265.941 100.5 265.775 101.667 265.508 102.8C265.241 103.933 265.008 104.833 264.808 105.5C264.075 107.5 263.575 109.7 263.308 112.1C263.041 114.433 263.041 116.733 263.308 119C263.641 121.267 264.308 123.4 265.308 125.4C266.308 127.4 267.775 129.1 269.708 130.5C270.308 130.833 270.408 131 270.008 131C269.675 131 269.441 131 269.308 131ZM271.908 130.2C270.975 129.667 270.075 129.1 269.208 128.5C268.408 127.9 267.608 126.733 266.808 125C266.475 124.333 266.208 123.433 266.008 122.3C265.875 121.167 265.775 120.1 265.708 119.1C265.708 118.033 265.775 117.167 265.908 116.5C266.041 115.767 266.208 115.433 266.408 115.5C266.541 115.5 266.675 115.667 266.808 116C266.941 116.267 267.041 116.6 267.108 117C267.175 117.4 267.241 117.8 267.308 118.2C267.375 118.533 267.408 118.767 267.408 118.9C267.675 120.367 267.908 121.467 268.108 122.2C268.308 122.867 268.575 123.6 268.908 124.4C269.441 125.467 269.975 126.433 270.508 127.3C271.041 128.167 271.708 128.967 272.508 129.7C272.841 129.967 272.908 130.167 272.708 130.3C272.575 130.433 272.308 130.4 271.908 130.2ZM246.608 131C246.675 131 246.608 131.033 246.408 131.1C246.275 131.167 245.975 131.133 245.508 131C244.975 130.733 244.408 130.233 243.808 129.5C243.275 128.767 242.841 127.333 242.508 125.2C242.375 124.333 242.308 123.3 242.308 122.1C242.308 120.833 242.341 119.667 242.408 118.6C242.541 117.467 242.708 116.5 242.908 115.7C243.108 114.9 243.341 114.533 243.608 114.6C243.675 114.6 243.741 114.8 243.808 115.2C243.875 115.6 243.941 116.067 244.008 116.6C244.075 117.067 244.108 117.567 244.108 118.1C244.108 118.567 244.108 118.9 244.108 119.1C244.175 120.567 244.241 121.667 244.308 122.4C244.441 123.067 244.608 124 244.808 125.2C245.008 126.467 245.241 127.633 245.508 128.7C245.775 129.7 246.141 130.467 246.608 131Z"
      fill="black"
    />
  </g>
  <g filter="url(#filter2_d_0_1)">
    <path
      d="M210.947 78.3C209.813 82.2333 208.513 86.2667 207.047 90.4C205.647 94.5333 204.18 98.4333 202.647 102.1C202.58 102.3 202.38 102.667 202.047 103.2C201.78 103.733 201.547 103.967 201.347 103.9C201.213 103.9 201.113 103.6 201.047 103C201.047 102.333 201.08 101.833 201.147 101.5C201.28 100.633 201.48 99.5667 201.747 98.3C202.013 97.0333 202.28 95.7333 202.547 94.4C202.88 93.0667 203.18 91.7667 203.447 90.5C203.78 89.2333 204.113 88.1333 204.447 87.2C204.58 86.8 204.813 85.9333 205.147 84.6C205.48 83.2667 205.847 81.6667 206.247 79.8C206.647 77.9333 207.047 75.9333 207.447 73.8C207.913 71.6667 208.28 69.6 208.547 67.6C208.88 65.6 209.113 63.7667 209.247 62.1C209.38 60.4333 209.347 59.1667 209.147 58.3C208.947 57.6333 208.947 57.3 209.147 57.3C209.28 57.3 209.38 57.4 209.447 57.6C209.58 57.7333 209.713 57.8667 209.847 58C210.513 59.2 211.013 60.6667 211.347 62.4C211.747 64.1333 211.98 65.9333 212.047 67.8C212.113 69.6667 212.047 71.5333 211.847 73.4C211.647 75.2667 211.347 76.9 210.947 78.3ZM206.947 55.2C207.813 58.6 208.013 62.1667 207.547 65.9C207.147 69.6333 206.413 73.4333 205.347 77.3C204.28 81.1667 203.08 85.1 201.747 89.1C200.413 93.0333 199.28 97 198.347 101C197.747 103.533 197.247 106.167 196.847 108.9C196.513 111.567 196.347 114.233 196.347 116.9C196.347 119.5 196.547 122.033 196.947 124.5C197.413 126.9 198.18 129.067 199.247 131C199.38 131.267 199.413 131.467 199.347 131.6C199.347 131.733 199.147 131.533 198.747 131C197.013 129 195.713 126.733 194.847 124.2C194.047 121.667 193.58 119 193.447 116.2C193.313 113.4 193.447 110.5 193.847 107.5C194.247 104.5 194.813 101.567 195.547 98.7C196.547 94.7 197.647 90.7667 198.847 86.9C200.113 83.0333 201.28 79.2667 202.347 75.6C203.48 71.9333 204.413 68.4 205.147 65C205.88 61.5333 206.247 58.2 206.247 55C206.247 54.6667 206.28 54.5 206.347 54.5C206.613 54.5 206.813 54.7333 206.947 55.2ZM225.147 131C222.68 129.867 220.713 128.1 219.247 125.7C217.78 123.3 216.88 120.533 216.547 117.4C216.213 114.333 216.213 111.8 216.547 109.8C216.88 107.733 217.28 105.7 217.747 103.7C217.813 103.433 217.947 103 218.147 102.4C218.347 101.733 218.48 101.067 218.547 100.4C218.68 99.7333 218.68 99.1667 218.547 98.7C218.48 98.1667 218.213 97.8333 217.747 97.7C216.813 97.5 215.747 97.9333 214.547 99C213.347 100 212.18 101.267 211.047 102.8C209.98 104.333 208.98 105.933 208.047 107.6C207.18 109.2 206.613 110.467 206.347 111.4C205.747 113.333 205.113 115.167 204.447 116.9C203.78 118.633 203.18 120.367 202.647 122.1C202.447 122.833 202.28 123.167 202.147 123.1C202.013 123.1 201.913 122.967 201.847 122.7C201.847 122.433 201.847 122.133 201.847 121.8C201.847 119.133 202.047 116.467 202.447 113.8C202.847 111.067 203.38 108.367 204.047 105.7C204.78 103.033 205.58 100.367 206.447 97.7C207.313 95.0333 208.147 92.3333 208.947 89.6C210.013 86.2 211.013 82.7333 211.947 79.2C212.947 75.6667 213.613 71.8667 213.947 67.8C213.947 67.4667 213.947 67.3 213.947 67.3C213.947 67.2333 213.98 67.2 214.047 67.2C214.247 67.2 214.413 67.4667 214.547 68C214.88 68.8667 215.013 70.1 214.947 71.7C214.947 73.2333 214.813 74.9333 214.547 76.8C214.347 78.6667 214.013 80.5667 213.547 82.5C213.147 84.4333 212.713 86.1667 212.247 87.7C213.513 86.3667 215.013 85.3333 216.747 84.6C218.48 83.8667 220.547 83.6667 222.947 84C225.68 84.4 227.78 85.4 229.247 87C230.713 88.5333 231.713 90.4 232.247 92.6C232.78 94.8 232.913 97.1667 232.647 99.7C232.447 102.167 232.047 104.567 231.447 106.9C230.913 108.7 230.413 110.3 229.947 111.7C229.48 113.033 229.013 114.267 228.547 115.4C228.08 116.533 227.68 117.6 227.347 118.6C227.013 119.6 226.747 120.667 226.547 121.8C226.413 122.533 226.28 122.9 226.147 122.9C226.013 122.9 225.88 122.767 225.747 122.5C225.68 122.233 225.613 121.967 225.547 121.7C225.147 120.233 225.113 118.433 225.447 116.3C225.847 114.167 226.347 111.933 226.947 109.6C227.547 107.2 228.08 104.8 228.547 102.4C229.08 99.9333 229.28 97.6667 229.147 95.6C229.08 93.5333 228.547 91.7333 227.547 90.2C226.547 88.6 224.847 87.5 222.447 86.9C221.447 86.6333 220.347 86.5667 219.147 86.7C218.013 86.7667 216.913 87.0333 215.847 87.5C214.847 87.9 213.947 88.5 213.147 89.3C212.347 90.1 211.813 91.0333 211.547 92.1C212.813 90.7667 214.447 89.6667 216.447 88.8C218.447 87.9333 220.38 87.8 222.247 88.4C223.98 88.9333 225.213 89.9 225.947 91.3C226.68 92.7 227.113 93.9333 227.247 95C227.513 97.3333 227.347 99.4667 226.747 101.4C226.213 103.267 225.58 105.067 224.847 106.8C224.713 107 224.513 107.333 224.247 107.8C223.98 108.2 223.78 108.367 223.647 108.3C223.513 108.3 223.447 108.033 223.447 107.5C223.447 106.967 223.48 106.567 223.547 106.3C223.747 105.633 223.913 104.6 224.047 103.2C224.18 101.733 224.213 100.233 224.147 98.7C224.147 97.1667 223.947 95.7333 223.547 94.4C223.213 93.0667 222.647 92.1667 221.847 91.7C220.913 91.1667 219.78 91.0333 218.447 91.3C217.113 91.5 215.68 92.3 214.147 93.7C212.813 94.9 211.68 96.3 210.747 97.9C209.813 99.4333 209.013 101.467 208.347 104C208.747 103.267 209.38 102.233 210.247 100.9C211.113 99.5667 212.08 98.3 213.147 97.1C214.28 95.9 215.447 94.9667 216.647 94.3C217.913 93.5667 219.113 93.4667 220.247 94C220.98 94.4 221.447 95.1 221.647 96.1C221.913 97.0333 221.98 98.1 221.847 99.3C221.78 100.5 221.613 101.667 221.347 102.8C221.08 103.933 220.847 104.833 220.647 105.5C219.913 107.5 219.413 109.7 219.147 112.1C218.88 114.433 218.88 116.733 219.147 119C219.48 121.267 220.147 123.4 221.147 125.4C222.147 127.4 223.613 129.1 225.547 130.5C226.147 130.833 226.247 131 225.847 131C225.513 131 225.28 131 225.147 131ZM227.747 130.2C226.813 129.667 225.913 129.1 225.047 128.5C224.247 127.9 223.447 126.733 222.647 125C222.313 124.333 222.047 123.433 221.847 122.3C221.713 121.167 221.613 120.1 221.547 119.1C221.547 118.033 221.613 117.167 221.747 116.5C221.88 115.767 222.047 115.433 222.247 115.5C222.38 115.5 222.513 115.667 222.647 116C222.78 116.267 222.88 116.6 222.947 117C223.013 117.4 223.08 117.8 223.147 118.2C223.213 118.533 223.247 118.767 223.247 118.9C223.513 120.367 223.747 121.467 223.947 122.2C224.147 122.867 224.413 123.6 224.747 124.4C225.28 125.467 225.813 126.433 226.347 127.3C226.88 128.167 227.547 128.967 228.347 129.7C228.68 129.967 228.747 130.167 228.547 130.3C228.413 130.433 228.147 130.4 227.747 130.2ZM202.447 131C202.513 131 202.447 131.033 202.247 131.1C202.113 131.167 201.813 131.133 201.347 131C200.813 130.733 200.247 130.233 199.647 129.5C199.113 128.767 198.68 127.333 198.347 125.2C198.213 124.333 198.147 123.3 198.147 122.1C198.147 120.833 198.18 119.667 198.247 118.6C198.38 117.467 198.547 116.5 198.747 115.7C198.947 114.9 199.18 114.533 199.447 114.6C199.513 114.6 199.58 114.8 199.647 115.2C199.713 115.6 199.78 116.067 199.847 116.6C199.913 117.067 199.947 117.567 199.947 118.1C199.947 118.567 199.947 118.9 199.947 119.1C200.013 120.567 200.08 121.667 200.147 122.4C200.28 123.067 200.447 124 200.647 125.2C200.847 126.467 201.08 127.633 201.347 128.7C201.613 129.7 201.98 130.467 202.447 131Z"
      fill="black"
    />
  </g>
  <defs>
    <filter
      id="filter0_i_0_1"
      x="43.6695"
      y="69.1"
      width="265.617"
      height="68.2"
      filterUnits="userSpaceOnUse"
      color-interpolation-filters="sRGB"
    >
      <feFlood
        flood-opacity="0"
        result="BackgroundImageFix"
      />
      <feBlend
        mode="normal"
        in="SourceGraphic"
        in2="BackgroundImageFix"
        result="shape"
      />
      <feColorMatrix
        in="SourceAlpha"
        type="matrix"
        values="0 0 0 0 0 0 0 0 0 0 0 0 0 0 0 0 0 0 127 0"
        result="hardAlpha"
      />
      <feOffset dy="4" />
      <feGaussianBlur stdDeviation="2" />
      <feComposite
        in2="hardAlpha"
        operator="arithmetic"
        k2="-1"
        k3="1"
      />
      <feColorMatrix
        type="matrix"
        values="0 0 0 0 0 0 0 0 0 0 0 0 0 0 0 0 0 0 0.25 0"
      />
      <feBlend
        mode="normal"
        in2="shape"
        result="effect1_innerShadow_0_1"
      />
    </filter>
    <filter
      id="filter1_d_0_1"
      x="233.408"
      y="54.5"
      width="47.8"
      height="85.3"
      filterUnits="userSpaceOnUse"
      color-interpolation-filters="sRGB"
    >
      <feFlood
        flood-opacity="0"
        result="BackgroundImageFix"
      />
      <feColorMatrix
        in="SourceAlpha"
        type="matrix"
        values="0 0 0 0 0 0 0 0 0 0 0 0 0 0 0 0 0 0 127 0"
        result="hardAlpha"
      />
      <feOffset dy="4" />
      <feGaussianBlur stdDeviation="2" />
      <feComposite
        in2="hardAlpha"
        operator="out"
      />
      <feColorMatrix
        type="matrix"
        values="0 0 0 0 0 0 0 0 0 0 0 0 0 0 0 0 0 0 0.25 0"
      />
      <feBlend
        mode="normal"
        in2="BackgroundImageFix"
        result="effect1_dropShadow_0_1"
      />
      <feBlend
        mode="normal"
        in="SourceGraphic"
        in2="effect1_dropShadow_0_1"
        result="shape"
      />
    </filter>
    <filter
      id="filter2_d_0_1"
      x="189.247"
      y="54.5"
      width="47.8"
      height="85.3"
      filterUnits="userSpaceOnUse"
      color-interpolation-filters="sRGB"
    >
      <feFlood
        flood-opacity="0"
        result="BackgroundImageFix"
      />
      <feColorMatrix
        in="SourceAlpha"
        type="matrix"
        values="0 0 0 0 0 0 0 0 0 0 0 0 0 0 0 0 0 0 127 0"
        result="hardAlpha"
      />
      <feOffset dy="4" />
      <feGaussianBlur stdDeviation="2" />
      <feComposite
        in2="hardAlpha"
        operator="out"
      />
      <feColorMatrix
        type="matrix"
        values="0 0 0 0 0 0 0 0 0 0 0 0 0 0 0 0 0 0 0.25 0"
      />
      <feBlend
        mode="normal"
        in2="BackgroundImageFix"
        result="effect1_dropShadow_0_1"
      />
      <feBlend
        mode="normal"
        in="SourceGraphic"
        in2="effect1_dropShadow_0_1"
        result="shape"
      />
    </filter>
  </defs>
</svg>